HIERARCHY
ROOT root
{
	OFFSET 0.000000 0.000000 0.000000
	CHANNELS 6 Xposition Yposition Zposition Zrotation Yrotation Xrotation
	JOINT lhip
	{
		OFFSET 0.058581 -0.082280 -0.017664
		CHANNELS 3 Zrotation Yrotation Xrotation
		JOINT lknee
		{
			OFFSET 0.043451 -0.386469 0.008037
			CHANNELS 3 Zrotation Yrotation Xrotation
			JOINT lankle
			{
				OFFSET -0.014790 -0.426874 -0.037428
				CHANNELS 3 Zrotation Yrotation Xrotation
				JOINT ltoe
				{
					OFFSET 0.041054 -0.060286 0.122042
					CHANNELS 3 Zrotation Yrotation Xrotation
					End Site
					{
						OFFSET 0.000000 0.000000 0.000000
					}
				}
			}
		}
	}
	JOINT rhip
	{
		OFFSET -0.060310 -0.090513 -0.013543
		CHANNELS 3 Zrotation Yrotation Xrotation
		JOINT rknee
		{
			OFFSET -0.043257 -0.383688 -0.004843
			CHANNELS 3 Zrotation Yrotation Xrotation
			JOINT rankle
			{
				OFFSET 0.019056 -0.420046 -0.034562
				CHANNELS 3 Zrotation Yrotation Xrotation
				JOINT rtoe
				{
					OFFSET -0.034840 -0.062106 0.130323
					CHANNELS 3 Zrotation Yrotation Xrotation
					End Site
					{
						OFFSET 0.000000 0.000000 0.000000
					}
				}
			}
		}
	}
	JOINT lowerback
	{
		OFFSET 0.004439 0.124404 -0.038385
		CHANNELS 3 Zrotation Yrotation Xrotation
		JOINT upperback
		{
			OFFSET 0.004488 0.137956 0.026820
			CHANNELS 3 Zrotation Yrotation Xrotation
			JOINT chest
			{
				OFFSET -0.002265 0.056032 0.002855
				CHANNELS 3 Zrotation Yrotation Xrotation
				JOINT lowerneck
				{
					OFFSET -0.013390 0.211636 -0.033468
					CHANNELS 3 Zrotation Yrotation Xrotation
					JOINT upperneck
					{
						OFFSET 0.010113 0.088937 0.050410
						CHANNELS 3 Zrotation Yrotation Xrotation
						End Site
						{
							OFFSET 0.000000 0.000000 0.000000
						}
					}
				}
				JOINT lclavicle
				{
					OFFSET 0.071702 0.114000 -0.018898
					CHANNELS 3 Zrotation Yrotation Xrotation
					JOINT lshoulder
					{
						OFFSET 0.122921 0.045205 -0.019046
						CHANNELS 3 Zrotation Yrotation Xrotation
						JOINT lelbow
						{
							OFFSET 0.255332 -0.015649 -0.022946
							CHANNELS 3 Zrotation Yrotation Xrotation
							JOINT lwrist
							{
								OFFSET 0.265709 0.012698 -0.007375
								CHANNELS 3 Zrotation Yrotation Xrotation
								End Site
								{
									OFFSET 0.000000 0.000000 0.000000
								}
							}
						}
					}
				}
				JOINT rclavicle
				{
					OFFSET -0.082954 0.112472 -0.023707
					CHANNELS 3 Zrotation Yrotation Xrotation
					JOINT rshoulder
					{
						OFFSET -0.113228 0.046853 -0.008472
						CHANNELS 3 Zrotation Yrotation Xrotation
						JOINT relbow
						{
							OFFSET -0.260127 -0.014369 -0.031269
							CHANNELS 3 Zrotation Yrotation Xrotation
							JOINT rwrist
							{
								OFFSET -0.269108 0.006794 -0.006027
								CHANNELS 3 Zrotation Yrotation Xrotation
								End Site
								{
									OFFSET 0.000000 0.000000 0.000000
								}
							}
						}
					}
				}
			}
		}
	}
}
MOTION
Frames: 13
Frame Time: 0.033333
1.716114 0.703726 1.021567 -87.129139 1.141748 86.262574 0.936909 2.931932 9.565114 -1.282516 -6.963115 2.948638 2.872933 9.546133 -12.996251 0.000000 -0.000000 0.000000 2.855824 -3.164302 3.632088 0.887918 -4.028714 13.270946 1.065725 -7.852375 -14.515621 0.000000 -0.000000 0.000000 0.722116 -1.341937 8.685003 1.175415 -1.516265 -2.554413 0.413943 -0.814724 0.719183 0.317374 3.339109 -2.444146 -2.894201 -0.156615 9.743300 -27.590877 2.418633 2.632091 -58.781441 -5.306081 9.710685 6.698818 -25.064148 9.844106 -5.867749 -4.645411 -4.613345 26.916976 2.242866 2.623533 57.953842 5.709658 12.884223 -12.698450 18.797351 -4.376525 4.835272 3.700219 -6.307491 
1.716985 0.704711 1.020497 -87.269164 0.922804 86.396089 0.861952 3.047811 9.165554 -1.487839 -6.895856 3.387042 3.181153 9.532321 -13.344555 0.000000 -0.000000 0.000000 2.910019 -2.620628 2.269022 0.567072 -4.050872 15.427803 1.341849 -8.264660 -15.575273 0.000000 -0.000000 0.000000 0.174866 -1.387733 8.809557 1.260915 -1.315321 -2.661813 0.456424 -0.829025 0.826735 0.773616 3.627092 -2.672676 -3.018913 -0.529502 10.173994 -27.571869 2.367120 2.695570 -58.284836 -5.623888 9.753021 6.880719 -25.061522 10.355965 -6.577190 -5.249352 -3.655239 27.122519 2.314243 2.543862 58.039303 5.940051 13.067049 -12.814532 18.749668 -4.590604 4.970096 3.872469 -6.073525 
1.717165 0.705843 1.018817 -86.920766 0.811737 86.094267 0.981765 2.909291 9.034514 -1.793952 -7.045577 4.182938 3.298018 9.558848 -13.723070 0.000000 -0.000000 0.000000 2.898814 -2.482761 1.655704 0.485247 -4.344655 17.197242 1.168631 -8.521040 -16.524368 0.000000 -0.000000 0.000000 -0.118667 -1.689788 9.500561 1.304433 -1.460120 -2.840985 0.469317 -0.784703 0.986802 0.775498 3.852291 -2.797968 -3.071927 -0.452912 10.235908 -27.182897 2.266418 2.586199 -58.279721 -5.658574 9.715195 6.858211 -25.364583 10.353991 -6.471943 -5.182976 -4.106908 27.019298 2.580647 2.498590 58.314744 5.959958 13.151285 -12.991300 19.113134 -4.235586 5.138866 3.793094 -5.996866 
1.716192 0.708140 1.017065 -86.917482 0.799596 85.578719 1.151649 2.673715 8.613852 -2.093034 -7.066631 6.144874 3.228906 9.832093 -14.522727 0.000000 -0.000000 0.000000 2.952417 -2.627643 1.791391 0.642173 -4.112264 18.098720 0.761814 -8.558724 -17.418789 0.000000 -0.000000 0.000000 -0.167727 -1.434877 9.912399 1.270726 -1.468324 -2.522651 0.353830 -0.766321 1.207628 0.828131 3.891078 -2.546018 -2.962027 -0.579261 10.539414 -27.078399 1.408451 2.764591 -57.864621 -5.746523 9.631125 7.446363 -25.503949 9.514256 -6.158248 -5.464037 -4.365432 27.148833 2.911241 2.627948 58.430651 5.940527 12.947674 -13.040582 19.464283 -4.287966 5.137697 3.853966 -6.498701 
1.715629 0.709863 1.016267 -86.946498 0.821246 85.316865 1.176084 2.384357 7.800277 -2.229182 -6.755781 8.340980 3.177461 9.961291 -15.249034 0.000000 -0.000000 0.000000 3.054667 -2.755042 2.115579 0.649612 -4.051454 18.182282 0.548872 -8.419756 -17.676875 0.000000 -0.000000 0.000000 -0.022908 -1.165052 10.304399 1.187137 -1.388772 -2.602205 0.279654 -0.835583 1.387093 0.670261 3.882619 -2.431666 -2.985612 -0.527363 10.916292 -26.971880 1.509195 2.740638 -57.844970 -5.991211 9.485671 7.475422 -25.659914 9.524374 -6.528429 -5.074972 -4.663662 27.120178 2.912600 2.557399 58.600002 5.972968 12.984965 -12.930466 19.373559 -4.363945 5.288469 4.031795 -6.766187 
1.713925 0.712471 1.015551 -86.869181 0.904833 84.875135 1.184164 1.987850 6.728513 -2.309303 -6.686604 11.464845 2.995377 10.427542 -16.068665 0.000000 -0.000000 0.000000 3.229412 -3.182622 2.893637 0.715516 -3.748620 17.893425 0.255028 -8.129031 -17.965011 0.000000 -0.000000 0.000000 0.295788 -1.005841 10.727496 1.105070 -1.534899 -2.469496 0.102501 -0.572570 1.640883 0.528715 3.847510 -2.020180 -2.925605 -0.534012 11.105037 -27.123310 1.620478 2.423544 -57.372935 -6.086387 9.196724 7.363104 -26.011499 9.009995 -5.548218 -4.756541 -4.968662 27.213739 3.015261 2.694422 58.555735 5.825348 12.919551 -12.718794 19.824235 -4.279254 5.316960 4.148862 -6.726324 
1.711764 0.715555 1.015421 -86.894983 0.873975 84.391948 0.708680 1.475367 5.084470 -1.861322 -6.436897 15.994721 2.371708 10.658787 -16.437597 0.000000 -0.000000 0.000000 3.389301 -3.209213 3.961943 0.721589 -3.487866 17.293464 0.117818 -8.224810 -18.026116 0.000000 -0.000000 0.000000 0.543404 -0.474294 11.254792 1.002722 -1.551621 -2.367369 0.019871 -0.548034 1.843085 0.183618 3.575462 -1.343439 -2.872358 -0.260121 11.379472 -27.246599 1.577496 2.440518 -57.022390 -6.075952 8.968283 7.625925 -26.446784 8.337809 -5.336819 -4.577689 -5.130382 27.286316 3.055990 2.851170 58.578451 5.678593 12.918870 -12.761560 19.898366 -4.272409 5.362202 3.972522 -6.793944 
1.710316 0.719469 1.015211 -86.806298 0.997875 84.009792 0.562350 0.871540 2.227412 -1.814912 -6.478211 22.285198 1.284438 10.437955 -15.671384 0.000000 -0.000000 0.000000 3.790185 -3.637045 4.726281 0.725012 -2.907170 16.716233 -0.271702 -8.222767 -18.142546 0.000000 -0.000000 0.000000 0.734498 0.161406 12.131400 1.036200 -1.592841 -2.592183 0.104508 -0.575106 2.048562 -0.023795 3.370254 -0.773282 -2.652729 0.029331 12.134521 -27.402044 1.608169 2.273822 -56.914046 -6.195232 8.854227 7.472239 -26.854523 7.245779 -3.559999 -4.354284 -6.301340 27.352353 2.963135 2.865587 58.260337 5.494594 13.047735 -12.099259 20.020660 -3.993472 4.528370 3.986277 -6.895023 
1.709420 0.723383 1.015430 -86.504570 1.127436 83.556205 0.606631 -0.449161 -1.733739 -2.398967 -6.551330 30.613551 0.482704 9.939279 -13.586919 0.000000 -0.000000 0.000000 4.096212 -4.095759 5.615655 0.786390 -2.893285 16.048302 -0.966227 -8.356341 -17.988559 0.000000 -0.000000 0.000000 1.049942 0.768855 12.953751 1.161100 -1.859992 -2.386067 0.056982 -0.454589 2.310443 -0.317320 3.302345 -0.224552 -2.377619 0.159931 12.485915 -27.400755 1.503072 2.358709 -56.798719 -6.371544 8.800679 7.866537 -27.368199 7.136679 -3.699257 -4.438949 -6.649699 27.446542 3.255755 3.081121 58.099890 5.506856 12.907007 -12.298493 19.944407 -3.826589 4.222589 3.907324 -7.130273 
1.708672 0.728618 1.015416 -86.873127 0.996521 83.061494 0.888029 -2.387490 -7.599717 -3.964455 -5.668169 41.709088 -0.604192 8.749244 -7.984725 0.000000 -0.000000 0.000000 4.135066 -4.201309 6.547957 0.899578 -2.738219 15.392291 -1.916699 -7.997942 -17.762224 0.000000 -0.000000 0.000000 1.317968 1.825129 14.713867 1.103896 -1.689016 -2.760753 0.013872 -0.354304 2.372530 -0.592296 2.865524 0.457583 -1.982857 0.263897 12.888503 -27.437636 1.773933 2.348369 -56.649911 -6.262638 8.934538 8.464809 -28.439748 7.129899 -4.754729 -4.413377 -6.652354 27.145591 3.035436 3.163056 58.177095 5.563795 12.732100 -12.004969 19.818718 -3.609158 5.001505 4.182314 -7.436855 
1.704071 0.731198 1.014455 -86.764932 0.941385 82.348890 1.197141 -4.755049 -11.091523 -5.735279 -4.819648 48.381860 -0.185283 8.509898 -3.960528 0.000000 -0.000000 0.000000 4.202884 -4.753498 8.229894 0.979200 -2.017654 14.234912 -2.804680 -8.492726 -17.487808 0.000000 -0.000000 0.000000 1.684523 2.636564 15.118239 1.236894 -2.005046 -1.711984 -0.090686 -0.305857 2.510451 -1.128929 2.337144 1.389193 -1.550585 0.538322 12.630055 -27.873730 1.333203 3.005797 -56.146930 -5.958432 9.024649 8.856056 -29.751544 6.463304 -4.756104 -4.629703 -8.306979 26.926904 3.650719 3.929434 57.937777 5.519950 12.630944 -12.137719 19.917825 -3.465391 4.981032 3.889036 -7.973425 
1.700788 0.733615 1.013767 -87.573377 0.695033 81.669725 1.186577 -5.707167 -13.913305 -6.567676 -3.870891 52.496054 0.228186 8.432108 -5.070769 0.000000 -0.000000 0.000000 3.951435 -4.886840 9.137535 0.940588 -1.489788 14.272609 -2.784646 -8.421440 -17.915390 0.000000 -0.000000 0.000000 1.944582 3.499081 16.289421 1.060126 -1.673057 -1.597103 -0.233760 0.166608 3.119115 -1.007690 2.011844 1.750728 -1.322218 0.585066 12.812425 -28.054013 1.458062 2.772978 -56.089574 -5.876524 8.971539 9.061883 -30.402950 6.509648 -4.461977 -3.966793 -8.505826 27.016994 3.850899 4.010469 57.342339 5.567337 12.657085 -12.007300 20.000767 -3.379306 4.701663 3.771842 -7.485488 
1.695667 0.735511 1.013712 -88.322294 0.337598 81.462383 1.227303 -5.388543 -16.047342 -6.986810 -3.488602 52.727365 0.206076 7.455139 -7.412239 0.000000 -0.000000 0.000000 3.632485 -5.192528 9.608911 0.695282 -0.722131 14.174685 -2.307386 -8.022499 -17.982028 0.000000 -0.000000 0.000000 1.897089 4.207599 17.032317 0.965941 -1.379940 -1.848396 -0.346278 0.616614 3.726886 -0.802920 1.802652 2.040183 -1.368237 0.027571 13.465786 -28.377921 2.239034 2.452845 -55.967826 -5.926126 8.808224 8.550040 -30.332363 6.886439 -2.849564 -3.943992 -7.808053 27.156317 3.802393 3.800483 56.859823 5.677197 12.658511 -11.797460 19.455814 -3.123150 4.177487 4.012966 -6.648793 
